<mxfile host="app.diagrams.net" agent="Mozilla/5.0 (Windows NT 10.0; Win64; x64) AppleWebKit/537.36 (KHTML, like Gecko) Chrome/138.0.0.0 YaBrowser/25.8.0.0 Safari/537.36" version="28.2.5">
  <diagram name="Страница — 1" id="qTqZ--aSDh24xkQlo6Nb">
    <mxGraphModel dx="1213" dy="670" grid="1" gridSize="10" guides="1" tooltips="1" connect="1" arrows="1" fold="1" page="1" pageScale="1" pageWidth="827" pageHeight="1169" math="0" shadow="0">
      <root>
        <mxCell id="0" />
        <mxCell id="1" parent="0" />
        <mxCell id="6zBkfx8ih-T-vU-RFizJ-3" value="" style="edgeStyle=orthogonalEdgeStyle;rounded=0;orthogonalLoop=1;jettySize=auto;html=1;" edge="1" parent="1" source="6zBkfx8ih-T-vU-RFizJ-1" target="6zBkfx8ih-T-vU-RFizJ-2">
          <mxGeometry relative="1" as="geometry" />
        </mxCell>
        <mxCell id="6zBkfx8ih-T-vU-RFizJ-1" value="начало" style="ellipse;whiteSpace=wrap;html=1;" vertex="1" parent="1">
          <mxGeometry x="350" y="20" width="120" height="60" as="geometry" />
        </mxCell>
        <mxCell id="6zBkfx8ih-T-vU-RFizJ-5" value="" style="edgeStyle=orthogonalEdgeStyle;rounded=0;orthogonalLoop=1;jettySize=auto;html=1;" edge="1" parent="1" source="6zBkfx8ih-T-vU-RFizJ-2" target="6zBkfx8ih-T-vU-RFizJ-4">
          <mxGeometry relative="1" as="geometry" />
        </mxCell>
        <mxCell id="6zBkfx8ih-T-vU-RFizJ-2" value="ввод x" style="shape=parallelogram;perimeter=parallelogramPerimeter;whiteSpace=wrap;html=1;fixedSize=1;" vertex="1" parent="1">
          <mxGeometry x="335" y="110" width="150" height="50" as="geometry" />
        </mxCell>
        <mxCell id="6zBkfx8ih-T-vU-RFizJ-9" value="" style="edgeStyle=orthogonalEdgeStyle;rounded=0;orthogonalLoop=1;jettySize=auto;html=1;" edge="1" parent="1" source="6zBkfx8ih-T-vU-RFizJ-4" target="6zBkfx8ih-T-vU-RFizJ-8">
          <mxGeometry relative="1" as="geometry" />
        </mxCell>
        <mxCell id="6zBkfx8ih-T-vU-RFizJ-4" value="&#xa;&lt;pre style=&quot;font-style: normal; font-variant: normal; font-size-adjust: none; font-kerning: auto; font-optical-sizing: auto; font-feature-settings: normal; font-variation-settings: normal; font-stretch: normal; font-size: 13px; line-height: 22px; font-family: Menlo, Monaco, &amp;quot;Cascadia Mono&amp;quot;, Consolas, &amp;quot;Ubuntu Mono&amp;quot;, &amp;quot;DejaVu Sans Mono&amp;quot;, &amp;quot;Liberation Mono&amp;quot;, &amp;quot;JetBrains Mono&amp;quot;, &amp;quot;Fira Code&amp;quot;, Cousine, &amp;quot;Roboto Mono&amp;quot;, &amp;quot;Courier New&amp;quot;, Courier, sans-serif, system-ui; overflow: auto; white-space: pre-wrap; word-break: break-all; padding: 16px; color: rgb(15, 17, 21); letter-spacing: normal; orphans: 2; text-align: start; text-indent: 0px; text-transform: none; widows: 2; word-spacing: 0px; -webkit-text-stroke-width: 0px; text-decoration-thickness: initial; text-decoration-style: initial; text-decoration-color: initial; margin: 0px !important;&quot;&gt;общий_счет = Х * 4&lt;/pre&gt;&#xa;&#xa;" style="whiteSpace=wrap;html=1;fontStyle=0" vertex="1" parent="1">
          <mxGeometry x="345" y="200" width="130" height="60" as="geometry" />
        </mxCell>
        <mxCell id="6zBkfx8ih-T-vU-RFizJ-11" value="" style="edgeStyle=orthogonalEdgeStyle;rounded=0;orthogonalLoop=1;jettySize=auto;html=1;" edge="1" parent="1" source="6zBkfx8ih-T-vU-RFizJ-8" target="6zBkfx8ih-T-vU-RFizJ-10">
          <mxGeometry relative="1" as="geometry" />
        </mxCell>
        <mxCell id="6zBkfx8ih-T-vU-RFizJ-8" value="&#xa;&lt;pre style=&quot;font: 400 13px / 22px Menlo, Monaco, &amp;quot;Cascadia Mono&amp;quot;, Consolas, &amp;quot;Ubuntu Mono&amp;quot;, &amp;quot;DejaVu Sans Mono&amp;quot;, &amp;quot;Liberation Mono&amp;quot;, &amp;quot;JetBrains Mono&amp;quot;, &amp;quot;Fira Code&amp;quot;, Cousine, &amp;quot;Roboto Mono&amp;quot;, &amp;quot;Courier New&amp;quot;, Courier, sans-serif, system-ui; margin: 0px !important; overflow: auto; white-space: pre-wrap; word-break: break-all; padding: 16px; color: rgb(15, 17, 21); letter-spacing: normal; orphans: 2; text-align: start; text-indent: 0px; text-transform: none; widows: 2; word-spacing: 0px; -webkit-text-stroke-width: 0px; text-decoration-thickness: initial; text-decoration-style: initial; text-decoration-color: initial;&quot;&gt;чаевые = общий_счет * 0.15&lt;/pre&gt;&#xa;&#xa;" style="whiteSpace=wrap;html=1;" vertex="1" parent="1">
          <mxGeometry x="335" y="300" width="150" height="70" as="geometry" />
        </mxCell>
        <mxCell id="6zBkfx8ih-T-vU-RFizJ-13" value="" style="edgeStyle=orthogonalEdgeStyle;rounded=0;orthogonalLoop=1;jettySize=auto;html=1;" edge="1" parent="1" source="6zBkfx8ih-T-vU-RFizJ-10" target="6zBkfx8ih-T-vU-RFizJ-12">
          <mxGeometry relative="1" as="geometry" />
        </mxCell>
        <mxCell id="6zBkfx8ih-T-vU-RFizJ-10" value="&#xa;&lt;pre style=&quot;font: 400 13px / 22px Menlo, Monaco, &amp;quot;Cascadia Mono&amp;quot;, Consolas, &amp;quot;Ubuntu Mono&amp;quot;, &amp;quot;DejaVu Sans Mono&amp;quot;, &amp;quot;Liberation Mono&amp;quot;, &amp;quot;JetBrains Mono&amp;quot;, &amp;quot;Fira Code&amp;quot;, Cousine, &amp;quot;Roboto Mono&amp;quot;, &amp;quot;Courier New&amp;quot;, Courier, sans-serif, system-ui; margin: 0px !important; overflow: auto; white-space: pre-wrap; word-break: break-all; padding: 16px; color: rgb(15, 17, 21); letter-spacing: normal; orphans: 2; text-align: start; text-indent: 0px; text-transform: none; widows: 2; word-spacing: 0px; -webkit-text-stroke-width: 0px; text-decoration-thickness: initial; text-decoration-style: initial; text-decoration-color: initial;&quot;&gt;Вывод чаевых&lt;/pre&gt;&#xa;&#xa;" style="shape=parallelogram;perimeter=parallelogramPerimeter;whiteSpace=wrap;html=1;fixedSize=1;" vertex="1" parent="1">
          <mxGeometry x="330" y="420" width="160" height="55" as="geometry" />
        </mxCell>
        <mxCell id="6zBkfx8ih-T-vU-RFizJ-12" value="конец" style="ellipse;whiteSpace=wrap;html=1;" vertex="1" parent="1">
          <mxGeometry x="340" y="527" width="140" height="57.5" as="geometry" />
        </mxCell>
      </root>
    </mxGraphModel>
  </diagram>
</mxfile>
